<svg width="23" height="18" viewBox="0 0 23 18" fill="none" xmlns="http://www.w3.org/2000/svg">
<path d="M21.5625 15C21.5625 15.3978 21.411 15.7794 21.1415 16.0607C20.8719 16.342 20.5062 16.5 20.125 16.5H2.875C2.49375 16.5 2.12812 16.342 1.85853 16.0607C1.58895 15.7794 1.4375 15.3978 1.4375 15V6C1.4375 5.60218 1.58895 5.22064 1.85853 4.93934C2.12812 4.65804 2.49375 4.5 2.875 4.5H4.55975C5.7029 4.49935 6.79904 4.0251 7.60725 3.1815L8.80037 1.9395C9.06919 1.65891 9.43359 1.50088 9.81381 1.5H13.1833C13.5645 1.50008 13.9301 1.65818 14.1996 1.9395L15.3899 3.1815C15.7904 3.59957 16.266 3.9312 16.7893 4.15743C17.3127 4.38366 17.8737 4.50007 18.4403 4.5H20.125C20.5062 4.5 20.8719 4.65804 21.1415 4.93934C21.411 5.22064 21.5625 5.60218 21.5625 6V15ZM2.875 3C2.1125 3 1.38124 3.31607 0.842068 3.87868C0.302901 4.44129 0 5.20435 0 6L0 15C0 15.7956 0.302901 16.5587 0.842068 17.1213C1.38124 17.6839 2.1125 18 2.875 18H20.125C20.8875 18 21.6188 17.6839 22.1579 17.1213C22.6971 16.5587 23 15.7956 23 15V6C23 5.20435 22.6971 4.44129 22.1579 3.87868C21.6188 3.31607 20.8875 3 20.125 3H18.4403C17.6778 2.99983 16.9467 2.68365 16.4076 2.121L15.2174 0.879C14.6783 0.316352 13.9472 0.000169912 13.1847 0H9.81525C9.05282 0.000169912 8.32167 0.316352 7.78263 0.879L6.59237 2.121C6.05333 2.68365 5.32219 2.99983 4.55975 3H2.875Z" fill="white"/>
<path d="M11.5 13.5C10.5469 13.5 9.63279 13.1049 8.95884 12.4017C8.28488 11.6984 7.90625 10.7446 7.90625 9.75C7.90625 8.75544 8.28488 7.80161 8.95884 7.09835C9.63279 6.39509 10.5469 6 11.5 6C12.4531 6 13.3672 6.39509 14.0412 7.09835C14.7151 7.80161 15.0938 8.75544 15.0938 9.75C15.0938 10.7446 14.7151 11.6984 14.0412 12.4017C13.3672 13.1049 12.4531 13.5 11.5 13.5ZM11.5 15C12.8344 15 14.1141 14.4469 15.0576 13.4623C16.0012 12.4777 16.5312 11.1424 16.5312 9.75C16.5312 8.35761 16.0012 7.02226 15.0576 6.03769C14.1141 5.05312 12.8344 4.5 11.5 4.5C10.1656 4.5 8.88591 5.05312 7.94237 6.03769C6.99883 7.02226 6.46875 8.35761 6.46875 9.75C6.46875 11.1424 6.99883 12.4777 7.94237 13.4623C8.88591 14.4469 10.1656 15 11.5 15ZM4.3125 6.75C4.3125 6.94891 4.23677 7.13968 4.10198 7.28033C3.96719 7.42098 3.78437 7.5 3.59375 7.5C3.40313 7.5 3.22031 7.42098 3.08552 7.28033C2.95073 7.13968 2.875 6.94891 2.875 6.75C2.875 6.55109 2.95073 6.36032 3.08552 6.21967C3.22031 6.07902 3.40313 6 3.59375 6C3.78437 6 3.96719 6.07902 4.10198 6.21967C4.23677 6.36032 4.3125 6.55109 4.3125 6.75Z" fill="white"/>
</svg>
