<svg width="136" height="130" viewBox="0 0 136 130" fill="none" xmlns="http://www.w3.org/2000/svg">
<ellipse cx="68.4053" cy="65" rx="67.5947" ry="65" fill="#D9D9D9"/>
<g clip-path="url(#clip0_219_348)">
<path d="M80.5599 67.394C80.5599 70.5686 79.3377 73.6132 77.1622 75.858C74.9867 78.1028 72.0361 79.3639 68.9594 79.3639C65.8828 79.3639 62.9321 78.1028 60.7566 75.858C58.5811 73.6132 57.3589 70.5686 57.3589 67.394C57.3589 64.2194 58.5811 61.1748 60.7566 58.93C62.9321 56.6852 65.8828 55.4241 68.9594 55.4241C72.0361 55.4241 74.9867 56.6852 77.1622 58.93C79.3377 61.1748 80.5599 64.2194 80.5599 67.394Z" fill="black"/>
<path d="M41.1182 45.8482C38.6569 45.8482 36.2964 46.8571 34.5559 48.6529C32.8155 50.4488 31.8378 52.8844 31.8378 55.4241L31.8378 84.1518C31.8378 86.6915 32.8155 89.1272 34.5559 90.923C36.2964 92.7188 38.6569 93.7277 41.1182 93.7277H96.8007C99.262 93.7277 101.623 92.7188 103.363 90.923C105.103 89.1272 106.081 86.6915 106.081 84.1518V55.4241C106.081 52.8844 105.103 50.4488 103.363 48.6529C101.623 46.8571 99.262 45.8482 96.8007 45.8482H91.3624C88.9012 45.8477 86.5411 44.8384 84.8011 43.0425L80.959 39.0781C79.219 37.2821 76.8589 36.2729 74.3978 36.2723H63.5211C61.06 36.2729 58.6999 37.2821 56.9599 39.0781L53.1178 43.0425C51.3778 44.8384 49.0176 45.8477 46.5565 45.8482H41.1182ZM43.4383 55.4241C42.823 55.4241 42.2328 55.1719 41.7977 54.7229C41.3626 54.274 41.1182 53.6651 41.1182 53.0302C41.1182 52.3952 41.3626 51.7863 41.7977 51.3374C42.2328 50.8884 42.823 50.6362 43.4383 50.6362C44.0536 50.6362 44.6437 50.8884 45.0788 51.3374C45.514 51.7863 45.7584 52.3952 45.7584 53.0302C45.7584 53.6651 45.514 54.274 45.0788 54.7229C44.6437 55.1719 44.0536 55.4241 43.4383 55.4241ZM85.2002 67.394C85.2002 71.8384 83.4891 76.1009 80.4434 79.2435C77.3976 82.3862 73.2667 84.1518 68.9594 84.1518C64.6521 84.1518 60.5212 82.3862 57.4755 79.2435C54.4298 76.1009 52.7187 71.8384 52.7187 67.394C52.7187 62.9495 54.4298 58.6871 57.4755 55.5444C60.5212 52.4017 64.6521 50.6362 68.9594 50.6362C73.2667 50.6362 77.3976 52.4017 80.4434 55.5444C83.4891 58.6871 85.2002 62.9495 85.2002 67.394Z" fill="black"/>
</g>
<defs>
<clipPath id="clip0_219_348">
<rect width="74.2433" height="76.6071" fill="white" transform="translate(31.8378 26.6964)"/>
</clipPath>
</defs>
</svg>
