<svg width="199" height="23" viewBox="0 0 199 23" fill="none" xmlns="http://www.w3.org/2000/svg">
<path d="M6.90301 22L0.0930078 0.819999H4.77301L9.75301 17.11H7.92301L12.783 0.819999H16.473L21.333 17.11H19.533L24.483 0.819999H29.133L22.323 22H18.633L13.743 5.71H15.483L10.593 22H6.90301ZM31.6816 22V0.819999H36.3916V22H31.6816ZM35.2816 22V17.92H46.8916V22H35.2816ZM35.2816 13.15V9.22H45.8416V13.15H35.2816ZM35.2816 4.87V0.819999H46.7416V4.87H35.2816ZM50.1386 22V0.819999H54.8486V22H50.1386ZM53.7686 22V17.86H64.2386V22H53.7686ZM75.8332 22.33C74.2532 22.33 72.7832 22.06 71.4232 21.52C70.0832 20.96 68.9032 20.18 67.8832 19.18C66.8832 18.18 66.1032 17.02 65.5432 15.7C64.9832 14.36 64.7032 12.92 64.7032 11.38C64.7032 9.84 64.9832 8.41 65.5432 7.09C66.1032 5.75 66.8832 4.59 67.8832 3.61C68.8832 2.63 70.0532 1.87 71.3932 1.33C72.7532 0.77 74.2232 0.49 75.8032 0.49C77.4832 0.49 78.9732 0.759999 80.2732 1.3C81.5932 1.84 82.7432 2.58 83.7232 3.52L80.5732 6.7C80.0132 6.1 79.3332 5.63 78.5332 5.29C77.7532 4.95 76.8432 4.78 75.8032 4.78C74.8832 4.78 74.0332 4.94 73.2532 5.26C72.4932 5.56 71.8332 6 71.2732 6.58C70.7332 7.16 70.3032 7.86 69.9832 8.68C69.6832 9.5 69.5332 10.4 69.5332 11.38C69.5332 12.38 69.6832 13.29 69.9832 14.11C70.3032 14.93 70.7332 15.63 71.2732 16.21C71.8332 16.79 72.4932 17.24 73.2532 17.56C74.0332 17.88 74.8832 18.04 75.8032 18.04C76.8832 18.04 77.8232 17.87 78.6232 17.53C79.4232 17.19 80.1132 16.72 80.6932 16.12L83.8732 19.3C82.8532 20.24 81.6832 20.98 80.3632 21.52C79.0632 22.06 77.5532 22.33 75.8332 22.33ZM95.7271 22.36C94.1271 22.36 92.6471 22.08 91.2871 21.52C89.9471 20.96 88.7671 20.18 87.7471 19.18C86.7271 18.18 85.9371 17.02 85.3771 15.7C84.8171 14.36 84.5371 12.92 84.5371 11.38C84.5371 9.82 84.8171 8.38 85.3771 7.06C85.9371 5.74 86.7171 4.59 87.7171 3.61C88.7171 2.61 89.8871 1.84 91.2271 1.3C92.5871 0.739998 94.0671 0.459998 95.6671 0.459998C97.2471 0.459998 98.7071 0.739998 100.047 1.3C101.407 1.84 102.587 2.61 103.587 3.61C104.607 4.59 105.397 5.75 105.957 7.09C106.517 8.41 106.797 9.85 106.797 11.41C106.797 12.95 106.517 14.39 105.957 15.73C105.397 17.05 104.617 18.21 103.617 19.21C102.617 20.19 101.437 20.96 100.077 21.52C98.7371 22.08 97.2871 22.36 95.7271 22.36ZM95.6671 18.07C96.9271 18.07 98.0271 17.79 98.9671 17.23C99.9271 16.67 100.667 15.89 101.187 14.89C101.707 13.87 101.967 12.7 101.967 11.38C101.967 10.38 101.817 9.48 101.517 8.68C101.217 7.86 100.787 7.16 100.227 6.58C99.6671 5.98 98.9971 5.53 98.2171 5.23C97.4571 4.91 96.6071 4.75 95.6671 4.75C94.4071 4.75 93.2971 5.03 92.3371 5.59C91.3971 6.13 90.6671 6.9 90.1471 7.9C89.6271 8.88 89.3671 10.04 89.3671 11.38C89.3671 12.38 89.5171 13.29 89.8171 14.11C90.1171 14.93 90.5371 15.64 91.0771 16.24C91.6371 16.82 92.3071 17.27 93.0871 17.59C93.8671 17.91 94.7271 18.07 95.6671 18.07ZM109.787 22V0.819999H113.147L121.487 13.81H119.777L128.087 0.819999H131.477V22H126.767V8.77L127.607 8.98L122.177 17.44H119.057L113.657 8.98L114.467 8.77V22H109.787ZM135.539 22V0.819999H140.249V22H135.539ZM139.139 22V17.92H150.749V22H139.139ZM139.139 13.15V9.22H149.699V13.15H139.139ZM139.139 4.87V0.819999H150.599V4.87H139.139ZM164.43 22V1.12H169.14V22H164.43ZM157.8 4.93V0.819999H175.77V4.93H157.8ZM187.397 22.36C185.797 22.36 184.317 22.08 182.957 21.52C181.617 20.96 180.437 20.18 179.417 19.18C178.397 18.18 177.607 17.02 177.047 15.7C176.487 14.36 176.207 12.92 176.207 11.38C176.207 9.82 176.487 8.38 177.047 7.06C177.607 5.74 178.387 4.59 179.387 3.61C180.387 2.61 181.557 1.84 182.897 1.3C184.257 0.739998 185.737 0.459998 187.337 0.459998C188.917 0.459998 190.377 0.739998 191.717 1.3C193.077 1.84 194.257 2.61 195.257 3.61C196.277 4.59 197.067 5.75 197.627 7.09C198.187 8.41 198.467 9.85 198.467 11.41C198.467 12.95 198.187 14.39 197.627 15.73C197.067 17.05 196.287 18.21 195.287 19.21C194.287 20.19 193.107 20.96 191.747 21.52C190.407 22.08 188.957 22.36 187.397 22.36ZM187.337 18.07C188.597 18.07 189.697 17.79 190.637 17.23C191.597 16.67 192.337 15.89 192.857 14.89C193.377 13.87 193.637 12.7 193.637 11.38C193.637 10.38 193.487 9.48 193.187 8.68C192.887 7.86 192.457 7.16 191.897 6.58C191.337 5.98 190.667 5.53 189.887 5.23C189.127 4.91 188.277 4.75 187.337 4.75C186.077 4.75 184.967 5.03 184.007 5.59C183.067 6.13 182.337 6.9 181.817 7.9C181.297 8.88 181.037 10.04 181.037 11.38C181.037 12.38 181.187 13.29 181.487 14.11C181.787 14.93 182.207 15.64 182.747 16.24C183.307 16.82 183.977 17.27 184.757 17.59C185.537 17.91 186.397 18.07 187.337 18.07Z" fill="white"/>
</svg>
